<?xml version="1.0" encoding="utf-8"?>
<!-- Generator: Adobe Illustrator 26.0.2, SVG Export Plug-In . SVG Version: 6.00 Build 0)  -->
<svg version="1.1" id="Layer_1" xmlns="http://www.w3.org/2000/svg" xmlns:xlink="http://www.w3.org/1999/xlink" x="0px" y="0px"
	 viewBox="0 0 880 352" style="enable-background:new 0 0 880 352;" xml:space="preserve">
<style type="text/css">
	.st0{fill:url(#Shape_00000122002220270868329380000016150068148406679999_);}
	.st1{fill:url(#Shape_00000115496400643973905620000002074022295559075775_);}
	.st2{fill:url(#Shape_00000114035043710659189130000012079940254547214473_);}
	.st3{fill:url(#Shape_00000070085514934144128480000008645776060429106355_);}
</style>
<path id="Rectangle" d="M510.4,98.6h18c4.6,0,8.4,3.7,8.4,8.4v190.9c0,4.6-3.7,8.4-8.4,8.4h-18c-4.6,0-8.4-3.7-8.4-8.4V106.9
	C502.1,102.3,505.8,98.6,510.4,98.6z"/>
<path id="Path" d="M848.2,98.6c-1.3,0-2.4,0.9-2.7,2.1c-2.5,11-14.3,61.4-23.2,96.8c-8.9,35.4-18,67.4-18.8,69.9
	c-0.4,1.7-1.1,3.4-2.1,4.9c-1,0.9-2.5,0.9-3.5,0c-1-1.5-1.7-3.1-2.1-4.9c-0.8-2.7-9.9-34.5-18.8-70c-8.9-35.5-20.6-85.8-23.2-96.8
	c-0.3-1.3-1.4-2.1-2.7-2.1h-29c-0.8,0-1.6,0.4-2.2,1c-0.5,0.6-0.7,1.5-0.6,2.3c1.2,6.5,3.9,21.1,5.4,27.5
	c0.8,3.9,8.7,39.1,18.8,76.4c11.1,40.8,24.4,82.3,25.4,85.5c0.9,3.2,2.7,6.2,5.1,8.5c2.2,1.9,4.7,3.4,7.4,4.4c2.9,1,5.9,1.6,8.9,1.8
	c3,0.2,6.1,0.3,9,0.3h0.3c3,0,5.9,0,9-0.3c3-0.2,6-0.8,8.9-1.8c2.7-1,5.3-2.5,7.4-4.4c2.5-2.3,4.2-5.3,5.1-8.5
	c1-3.1,14.4-44.6,25.4-85.5c10.1-37.4,17.9-72.4,18.8-76.4c1.4-6.5,4.2-21,5.4-27.5c0.2-0.8-0.1-1.7-0.6-2.3c-0.5-0.6-1.3-1-2.2-1
	L848.2,98.6z"/>
<path id="Path_00000080199726062470099950000005968895476009082793_" d="M445.3,98.6h-13.4c-0.7,0-1.5,0.3-2,0.8
	c-0.5,0.5-0.8,1.2-0.8,2l0.1,156.9c0,1.2,0,5.3,0,6.3v0.1c0,1.4-1.1,2.6-2.5,2.9c-1.4,0.2-2.8-0.6-3.3-1.9l0,0
	c-0.4-1.1-1.6-4.4-2.2-5.8l-17.8-45.2l-35.5-92c-1.2-3.6-2.5-7-4.1-10.4c-1.3-2.9-3.3-5.5-5.7-7.6c-2.5-2.1-5.5-3.6-8.6-4.4
	c-6.1-1-12.2-1.5-18.4-1.4c-10.1,0-16.6,2.2-20,6.7s-4.9,10.3-4.9,17.7v180.4c0,0.7,0.3,1.4,0.8,2c0.5,0.5,1.2,0.8,2,0.8h26.6
	c1.5,0,2.8-1.3,2.8-2.8l-0.1-156.9c0-1.2,0-5.3,0-6.3v-0.1c0-1.4,1.1-2.6,2.5-2.9c1.4-0.2,2.8,0.6,3.3,1.9l0,0
	c0.4,1.1,1.6,4.5,2.2,5.9l43.1,111.6v-0.1l10,25.8c1.2,3.6,2.6,7,4.2,10.4c1.4,2.9,3.3,5.5,5.7,7.6c2.5,2.1,5.5,3.6,8.6,4.4
	c3.5,1,13.8,1.4,18.4,1.4c10.1,0,16.6-2.2,20-6.7c3.4-4.5,4.8-10.3,4.8-17.7V101.4c0-1.5-1.2-2.8-2.8-2.8H445.3z"/>
<path id="Path_00000036224423782354075950000014781785083619151803_" d="M563,101.4v24.4c0,1.5,1.2,2.8,2.8,2.8h40.9
	c2.1,0,3.8,1.6,3.9,3.7l0,0v171.1c0,1.5,1.3,2.8,2.8,2.8h29.2c1.5,0,2.8-1.3,2.8-2.8V132.5l0,0l0,0l0,0c0.1-2,1.6-3.6,3.6-3.8h0.2
	h41.1c1.5,0,2.8-1.3,2.8-2.8v-24.5c0-1.5-1.3-2.8-2.8-2.8H565.8C564.2,98.6,563,99.8,563,101.4z"/>
<linearGradient id="Shape_00000163754703715393536250000002698265144941911740_" gradientUnits="userSpaceOnUse" x1="7.038" y1="189.0002" x2="69.6099" y2="47.4388">
	<stop  offset="5.000000e-02" style="stop-color:#4978C1"/>
	<stop  offset="0.1681" style="stop-color:#4D84C5"/>
	<stop  offset="0.3788" style="stop-color:#58A2D1"/>
	<stop  offset="0.5" style="stop-color:#5FB7D9"/>
	<stop  offset="1" style="stop-color:#C9E7F2"/>
</linearGradient>
<path id="Shape" style="fill:url(#Shape_00000163754703715393536250000002698265144941911740_);" d="M35.4,166.6
	c-3.7,6.7-16.6,19.6-20.4,21.9c-1.2,0.8-2.6,1.3-4.1,1.4c-1,0-2-0.2-3-0.6c-2.2-0.7-4.2-2-5.8-3.7c-1.7-2.3-2.4-5.2-2-8
	c0.5-9.9,2.5-19.7,5.9-29c2.2,0.8,4.4,1.5,6.7,2c10.4,2.1,21.3,1.1,31.2-2.8c-0.3,0.8-0.7,1.6-1,2.4
	C40.7,155.8,38.2,161.3,35.4,166.6L35.4,166.6z M12.8,133.3c0.7-1.5,1.4-2.9,2.1-4.3l3.2-6.5c0.7-1.5,1.4-3,2.2-4.5
	c1.1-2.1,2.1-4.3,3.1-6.5l5.1-11.6l6.2-14.1c0.7-1.5,1.3-3,2-4.4c1.4-3.3,2.8-6.7,4.4-9.8c2.4-4.5,5.4-8.6,9-12.3
	c1.6-1.7,9.9-10.3,14-12c2.9-1.2,6.4,0.4,7.8,1.1s4.4,2.5,4.9,5.1c0.4,2.3,0.5,4.7,0.1,7c-1,8.5-2.9,16.9-5.6,25l0,0
	c-0.7,1.8-1.5,3.5-2.3,5.2l-1.2,2.6c-3.4,7.7-6.8,15.3-10.2,23c-0.9,2-1.8,3.9-2.7,5.9c-1.3,0.7-2.6,1.6-3.8,2.5
	c-10.9,8.5-23.7,11.9-34.9,9.6C15,134,13.9,133.7,12.8,133.3z M43.3,114.4c8.3,5.3,16.6-7.7,8.2-12.9S35,109.1,43.3,114.4
	L43.3,114.4z M28.1,125c8.3,5.3,16.6-7.7,8.2-12.9C28,106.9,19.9,119.8,28.1,125L28.1,125z"/>
<linearGradient id="Shape_00000033353064851376047200000005005625231490177975_" gradientUnits="userSpaceOnUse" x1="77.1157" y1="285.4562" x2="194.1638" y2="20.6487">
	<stop  offset="0" style="stop-color:#895E26"/>
	<stop  offset="0.1126" style="stop-color:#8D6528"/>
	<stop  offset="0.2808" style="stop-color:#997A2C"/>
	<stop  offset="0.4829" style="stop-color:#AD9B34"/>
	<stop  offset="0.5" style="stop-color:#AF9E35"/>
	<stop  offset="1" style="stop-color:#ECC75B"/>
</linearGradient>
<path id="Shape_00000181062141456985533890000007627049536729593001_" style="fill:url(#Shape_00000033353064851376047200000005005625231490177975_);" d="
	M129.6,236.7c-6.2-3.1-11.7-7.6-15.9-13.1c-10.2-12.9-12.1-30.6-4.8-45.3c10.8-20.8,35.3-26.6,58.7-29.2l0.5-1.2
	c6.3-14,12.7-28.5,19.1-43.3c0.4-0.8,0.7-1.7,1.1-2.5c-8.5,2.3-16.7,8.5-26,15.4c-14,10.5-29.8,22.3-51.5,24.7
	c-1.8,4.1-3.7,8.1-5.6,12c-1.4,2.9-2.8,5.7-4.1,8.6c-1.9,4.1-3.9,8.1-5.9,12.2c-4.8,9.8-9.7,20.1-14,30.4
	c-7.8,18.9-12.6,38.9-14.4,59.3v0.8c-0.4,4.4-1,9.8,2.3,14.2c2.6,3,5.9,5.2,9.7,6.4c1.5,0.6,3,0.9,4.6,0.9c2.7-0.1,5.3-1.1,7.4-2.8
	c6.5-4.6,29.2-29.2,35.9-41.6C127.7,240.6,128.7,238.7,129.6,236.7z M85.5,223.7c-1.5-3.2-0.8-7,1.6-9.5c2.4-2.6,6.2-3.4,9.5-2.1
	s5.5,4.4,5.5,7.9c0,3.5-2.1,6.7-5.3,8.1c-1.1,0.5-2.4,0.7-3.6,0.7C89.7,228.9,86.7,226.9,85.5,223.7L85.5,223.7z M112.7,242
	c-1.7,2.9-4.7,4.7-8,4.8h-0.2c-2.9,0-5.6-1.5-7-4.1c-2.4-4.1-1-9.3,3-11.7c4.1-2.4,9.3-1.2,11.8,2.8
	C114.1,236.3,114.2,239.4,112.7,242z M144.6,202.1c-1.3,3.3-2.6,6.5-3.9,9.8s-2.6,6.5-3.9,9.6c-3.7-2-6.9-4.7-9.5-8
	c-6.3-7.8-7.6-18.5-3.2-27.5c5.9-11.5,19.9-16.4,35.7-19c-3.5,7.9-6.8,15.7-10,23.2L144.6,202.1z M120.4,120.2l-1.4,3.3
	c12.6-3.9,23.1-11.8,33.4-19.4c13-9.8,26.6-19.8,43.2-19.6c4.1-13.5,7.2-27.2,9.2-41.1c0.7-4.1,0.8-8.3,0.3-12.5
	c-0.6-3.8-4.5-7.2-8.1-9c-2.2-1.2-7.9-3.7-12.8-1.3c-6.9,3.4-21.5,19.7-24.4,23c-6.3,7-11.7,14.7-15.9,23.1
	c-3,6.2-5.8,12.7-8.2,18.5c-1.2,2.8-2.4,5.6-3.6,8.4C128.2,102.5,124.3,111.3,120.4,120.2z M177.2,67.4c0.9-2.8,3.2-4.8,6-5.5
	c2.8-0.6,5.8,0.3,7.8,2.5c2,2.1,2.6,5.2,1.7,7.9c-1,3.4-4.1,5.8-7.6,5.9c-0.9,0-1.8-0.2-2.7-0.4l0,0c-2.1-0.6-3.9-2.1-4.9-4.1
	C176.6,71.8,176.5,69.5,177.2,67.4z M166.2,67c2.9,0.1,5.4,1.8,6.6,4.4c1.4,2.9,1.1,6.4-0.7,9.1c-1.5,2.1-3.9,3.4-6.5,3.3h-0.8
	c-2.2-0.1-4.3-1.2-5.7-2.9c-1.4-1.7-2-3.9-1.8-6.1c0.1-2.2,1.1-4.3,2.7-5.8C161.8,67.5,164,66.8,166.2,67z M141.8,81.6
	c1.6-2.3,4.4-3.6,7.3-3.3c2.8,0.1,5.4,1.7,6.6,4.3c1.4,2.9,1.1,6.4-0.7,9c-1.4,2.1-3.9,3.4-6.5,3.3h-0.8c-2.9-0.1-5.4-1.8-6.7-4.4
	C139.8,87.6,140,84.2,141.8,81.6L141.8,81.6z"/>
<linearGradient id="Shape_00000085210996962841090000000010517776449764538780_" gradientUnits="userSpaceOnUse" x1="38.376" y1="232.7108" x2="125.032" y2="36.662">
	<stop  offset="0" style="stop-color:#4F8090"/>
	<stop  offset="0.1914" style="stop-color:#518E8E"/>
	<stop  offset="0.5" style="stop-color:#57AC8B"/>
	<stop  offset="1" style="stop-color:#D4DC9E"/>
</linearGradient>
<path id="Shape_00000027579100511320965860000011715935880041860530_" style="fill:url(#Shape_00000085210996962841090000000010517776449764538780_);" d="
	M75.5,201.2c-5,9.2-22.1,27.3-27,30.6c-1.5,1.2-3.4,1.9-5.4,2c-1.2,0-2.4-0.3-3.5-0.7c-2.8-0.9-5.4-2.5-7.3-4.7
	c-2.5-3.2-2.1-7.4-1.9-10.4c1.1-15.3,4.7-30.4,10.5-44.6c3.2-7.6,6.9-15.2,10.4-22.6c1.4-2.9,2.8-5.9,4.2-8.8c2-1.2,3.9-2.6,5.7-3.9
	c5.1-3.9,10.6-2.5,20.7,0.5c6.2,2.1,12.6,3.5,19.1,4.1c-3,6.8-5.9,13.5-8.7,20l-3.7,8.8c-1,2.4-2,4.8-3,7.3
	C82.7,186.3,79.3,193.9,75.5,201.2L75.5,201.2z M70,110.1c2.9-6.6,5.8-13.1,8.6-19.7c0.9-2,1.8-4.1,2.6-6.2c2-4.5,3.9-9.2,6.1-13.8
	c3.2-6.2,7.2-11.9,12-17c2.2-2.4,13.1-14.4,18.4-16.8c3.6-1.7,7.9,0.2,9.6,1.1c1.3,0.7,5.5,3.1,6.1,6.5c0.4,3.1,0.4,6.3-0.1,9.4
	c-1.6,11.7-4.3,23.3-8,34.5c-0.9,2.4-2,4.8-3.1,7.1l-1.6,3.8c-3.9,8.9-7.9,17.7-11.8,26.6c-1.1,0.1-2.3,0.2-3.5,0.3
	c-5.9,0.3-12-1.6-18.3-3.5c-6.3-1.9-13.5-4.1-20.7-3.6L70,110.1z M97.3,117.2c8.5,5.1,16.4-8,7.9-13.1
	C96.7,99,88.9,112.1,97.3,117.2z M80.7,112.8c8.4,5.1,16.4-8,7.9-13.1S72.2,107.7,80.7,112.8z"/>
<linearGradient id="Shape_00000178922448843086915350000017880542653593852090_" gradientUnits="userSpaceOnUse" x1="124.0782" y1="350.204" x2="278.367" y2="1.1438">
	<stop  offset="0" style="stop-color:#A13424"/>
	<stop  offset="0.128" style="stop-color:#AF3F24"/>
	<stop  offset="0.3671" style="stop-color:#D25B23"/>
	<stop  offset="0.5" style="stop-color:#E96D23"/>
	<stop  offset="1" style="stop-color:#FBB120"/>
</linearGradient>
<path id="Shape_00000059271492645344050710000010427264029116544656_" style="fill:url(#Shape_00000178922448843086915350000017880542653593852090_);" d="
	M184,133.2c4.7-10.6,9.3-21.2,13.8-31.8c15.4,1.5,21.2,11.9,21.5,21.4c0.5,12-8.6,22.4-20.6,23.4c-4.5,0.5-9.4,0.9-14.6,1.4
	l-6.6,0.5L184,133.2z M290.1,29.3c-2.7,19.4-10.5,49.7-15.1,61.2l0,0c-1.7,4.3-3.6,8.5-5.5,12.7c-1,2.2-2,4.4-2.9,6.6
	c-8.3,19.2-16.8,38.4-25.4,57.5l-2.4,5.5c-23.1,5.9-35.4,19.3-45.9,30.6c-8.9,9.6-16.6,18-29.5,20.7c-6.9,1.7-14.2,1.5-21.1-0.4
	c2.8-6,5.6-11.9,8.4-17.7c2.6-5.4,5.2-10.8,7.7-16.2c1.8-3.9,3.6-7.7,5.4-11.6c2.1-4.2,4-8.5,5.9-12.7c5.2-0.6,10.4-1,15.6-1.4
	s10.5-0.8,15.3-1.4c20.7-2,36.3-19.7,35.5-40.4c-0.2-18.3-13.5-33.8-31.6-36.8c3.3-7.9,6.7-15.7,10.4-23.6
	c5.5-11,12.5-21.2,20.6-30.5C238,29,258,5.7,266.8,1.2c3.8-2,9.1-1.5,14.6,1.4c4.2,2.2,8.9,6.1,9.4,10.5
	C291.4,18.4,291.2,23.9,290.1,29.3z M234.7,77.8c0.3-2.9-1-5.7-3.3-7.5c-2.3-1.8-5.4-2.2-8.1-1.2c-3.1,1.3-5.2,4.1-5.7,7.4
	c-0.4,2.9,0.9,5.8,3.3,7.5c1.4,1.2,3.2,1.8,5.1,1.8c1,0,2.1-0.2,3-0.6C232.1,83.9,234.2,81.1,234.7,77.8z M242.6,101.2
	c2.7-0.1,5.2-1.4,6.9-3.5c2.2-3.1,1.9-7.3-0.6-10.1s-6.6-3.6-10-1.9c-3.4,1.7-5.1,5.5-4.2,9.2C235.6,98.5,238.8,101.1,242.6,101.2
	L242.6,101.2z M256.4,104c-3.8-2.9-9.3-2.2-12.2,1.6c-2.9,3.8-2.2,9.2,1.6,12.2l0,0c1.4,1.2,3.2,1.8,5.1,1.8
	c2.7-0.1,5.2-1.4,6.9-3.5c1.5-1.7,2.2-4,2-6.3C259.5,107.5,258.3,105.4,256.4,104L256.4,104z M229.3,194.2
	c-4.4,10.1-8.7,19.9-12.8,29.5l-6.6,15.7c-1.9,4.4-3.7,8.8-5.5,13.2c-5.5,13.5-11.3,27.5-18.2,40.6c-8.7,16.5-37.9,49-46.2,55.2
	c-2.4,2.1-5.5,3.4-8.7,3.6c-1.7,0-3.4-0.4-5.1-1c-4.5-1.4-8.5-4-11.5-7.6c-3.7-5.1-2.9-11.9-2.3-17.4l0.1-1.1
	c2.7-26.9,9.3-53.2,19.6-78.1c1.1-2.5,2.2-5,3.3-7.6c5.7,2,11.7,2.9,17.8,2.9c4.6,0,9.3-0.5,13.8-1.5c18-3.9,28.3-15,38.2-25.7
	C212.4,207.1,219.3,199.6,229.3,194.2z M149.1,249.7c-4.3-1.7-9.2,0.2-11.1,4.5s-0.1,9.2,4,11.3c1.1,0.5,2.4,0.8,3.6,0.8
	c3.4-0.1,6.3-2.2,7.6-5.3c1-2,1.2-4.4,0.4-6.5C152.8,252.4,151.2,250.6,149.1,249.7L149.1,249.7z M169.9,248.4
	c-4.5-1.1-9.1,1.6-10.4,6.1c-1.2,4.5,1.3,9.1,5.8,10.5c0.8,0.2,1.6,0.3,2.4,0.3c3.8-0.1,7-2.8,7.9-6.4c0.7-2.2,0.5-4.5-0.6-6.5
	C173.9,250.5,172.1,249,169.9,248.4z M196.2,245.7c-1.3-2.8-4-4.6-7.1-4.9s-6,1.3-7.7,3.8c-1.7,2.6-1.8,5.9-0.3,8.5
	c0.9,2.1,2.7,3.7,4.8,4.5s4.5,0.6,6.6-0.5c2.1-1,3.6-2.8,4.3-4.9C197.6,250,197.4,247.7,196.2,245.7L196.2,245.7z"/>
</svg>
